<?xml version="1.0" encoding="UTF-8" standalone="no"?>
<svg
   id="Layer_2"
   data-name="Layer 2"
   viewBox="0 0 579.9 612.53"
   version="1.1"
   sodipodi:docname="logo.svg"
   inkscape:version="1.3.2 (091e20ef0f, 2023-11-25, custom)"
   xmlns:inkscape="http://www.inkscape.org/namespaces/inkscape"
   xmlns:sodipodi="http://sodipodi.sourceforge.net/DTD/sodipodi-0.dtd"
   xmlns="http://www.w3.org/2000/svg"
   xmlns:svg="http://www.w3.org/2000/svg">
  <sodipodi:namedview
     id="namedview11"
     pagecolor="#505050"
     bordercolor="#eeeeee"
     borderopacity="1"
     inkscape:showpageshadow="0"
     inkscape:pageopacity="0"
     inkscape:pagecheckerboard="0"
     inkscape:deskcolor="#505050"
     inkscape:zoom="1.3656593"
     inkscape:cx="217.8435"
     inkscape:cy="405.29875"
     inkscape:window-width="2556"
     inkscape:window-height="1389"
     inkscape:window-x="3840"
     inkscape:window-y="356"
     inkscape:window-maximized="1"
     inkscape:current-layer="Layer_2" />
  <defs
     id="defs1">
    <style
       id="style1">
      .cls-1 {
        fill: #069;
      }

      .cls-1, .cls-2 {
        stroke-width: 0px;
      }

      .cls-2 {
        fill: #fff;
      }
    </style>
  </defs>
  <g
     id="Layer_1-2"
     data-name="Layer 1"
     transform="translate(-0.30151609,0.55962322)">
    <path
       class="cls-1"
       d="m 279.13,358.2 h -17.84 c -0.11,2.16 -0.31,4.24 -0.31,6.32 -0.1,45.83 -0.18,91.65 -0.28,137.48 0,2.5 0.06,5.03 -0.34,7.48 -1.06,6.54 -6.84,10.97 -13.62,10.7 -6.45,-0.26 -11.57,-5.13 -12.16,-11.69 -0.19,-2.15 -0.14,-4.33 -0.14,-6.49 0,-45.66 0,-91.32 0.01,-136.98 0,-2.15 0,-4.31 0,-6.93 h -19.47 c 0,2.13 0,4.08 0,6.03 0.02,40.16 0.06,80.32 0.06,120.48 0,8.97 -4.66,14.4 -12.64,14.91 -7.63,0.48 -13.6,-4.73 -13.8,-12.52 -0.21,-8.33 0.01,-16.66 0.02,-24.99 0.02,-33.16 0.04,-66.32 0.04,-99.49 0,-1.46 -0.16,-2.91 -0.27,-4.92 -4.59,0 -8.89,0.15 -13.17,-0.03 -12.63,-0.51 -25.52,0.29 -37.83,-1.99 -42.66,-7.9 -77.07,-48.78 -74.07,-96.16 2.53,-40.01 23.4,-67.6 58.42,-84.71 12.4,-6.06 26.32,-9.07 39.64,-13.18 2.73,-0.84 4.48,-1.64 5.79,-4.51 20.27,-44.51 54.34,-71.75 102.75,-79.58 63.02,-10.18 122.9,24.8 146.03,84.75 2.03,5.27 4.53,6.84 9.95,7.06 38.02,1.54 65.58,20.36 82.06,53.85 26.25,53.33 -3.01,121.52 -68.06,132.85 -11.54,2.01 -23.56,1.23 -35.36,1.71 -2.14,0.09 -4.28,0.01 -7.24,0.01 0,2.96 0,5.38 0,7.8 0,34.5 0.01,68.99 -0.01,103.49 0,7.18 -3.88,11.97 -10.79,13.59 -8.52,1.99 -15.95,-3.5 -16.14,-12.27 -0.2,-8.99 0.07,-18 0.07,-26.99 -0.02,-26.66 -0.08,-53.33 -0.12,-79.99 0,-1.63 0,-3.27 0,-5.21 h -19.35 c 0,2.91 0,5.36 0,7.81 -0.03,43.66 -0.1,87.32 -0.04,130.98 0,6.21 -1.86,11.1 -7.48,14.15 -9.57,5.19 -19.57,-0.54 -19.72,-11.43 -0.14,-9.66 0,-19.33 0,-29 0,-35.5 0,-70.99 0,-106.49 0,-1.81 0,-3.62 0,-5.86 h -18.45 c 0,2.31 0,4.43 0,6.55 0,77.32 -0.02,154.64 -0.03,231.96 0,9.76 -4.7,15.5 -12.86,15.78 -5.87,0.2 -10.01,-2.34 -11.86,-7.96 -0.97,-2.94 -1.48,-6.18 -1.48,-9.28 0.04,-77.82 0.18,-155.64 0.29,-233.47 0,-0.98 -0.1,-1.96 -0.2,-3.61 z m 10.54,-42.62 v -0.09 c 44.82,0 89.64,0 134.46,-0.02 2.99,0 6.04,0.04 8.97,-0.46 25.42,-4.33 45.01,-29.21 43.12,-54.59 -2.06,-27.54 -24,-48.96 -50.83,-49.53 -7.66,-0.16 -15.33,-0.09 -22.99,-0.11 -11.1,-0.03 -14.78,-2.96 -16.87,-14.11 -2.97,-15.88 -9.4,-30.21 -19.47,-42.75 -23.63,-29.42 -54.37,-42.99 -91.7,-36.56 -33.14,5.71 -56.34,26.04 -70.24,56.47 -3.21,7.01 -7.15,9.85 -14.84,10.44 -15.3,1.17 -27.13,8.33 -33.33,23.22 -0.55,1.32 -2.72,2.66 -4.23,2.77 -26.75,2.01 -46.23,25.37 -47.31,51.56 -1.1,26.71 21.95,54.68 52.32,54 44.3,-0.99 88.64,-0.25 132.96,-0.25 z"
       id="path1" />
    <path
       class="cls-1"
       d="m 38.8,301.31 c 1.18,71.23 32.67,137.53 94.96,189.1 5.26,4.35 10.77,8.42 15.97,12.83 8.37,7.1 10.13,15.63 5.07,23.37 -5.15,7.89 -16.05,11.11 -24.69,5.55 -12.7,-8.18 -25.41,-16.72 -36.6,-26.78 C 46.9,463.48 17.65,411.38 5.74,349.87 -5.78,290.39 -0.04,232.33 23.69,176.57 45.49,125.32 80.29,84.39 125.87,52.45 166.88,23.71 212.55,7.16 261.96,1.65 c 53.7,-5.98 105.01,4.41 153.06,28.64 84.75,42.74 139.18,110.49 158.37,203.56 17.54,85.11 -0.59,163.9 -52.5,234 -18.78,25.35 -42.31,46.09 -69.25,62.74 -5.7,3.52 -11.7,5.59 -18.51,3.6 -12.86,-3.76 -17.39,-18.79 -8.41,-28.69 2.88,-3.17 6.46,-5.76 9.92,-8.33 26.01,-19.33 49.13,-41.41 66.47,-69.09 30.26,-48.31 44.13,-100.99 39.07,-157.69 C 534.36,205.25 506.25,150.51 457.65,106.66 416.67,69.69 368.81,47.11 313.83,40.52 272.32,35.55 232.41,42.56 194.32,59.26 142.63,81.93 101.56,117.16 72.78,165.91 49.94,204.61 38.98,246.77 38.79,301.29 Z"
       id="path2" />
    <path
       class="cls-1"
       d="m 214.57,562.14 c 0,4.32 0.09,8.65 -0.02,12.97 -0.19,7.43 -6.13,13.15 -13.51,13.14 -6.84,-0.01 -12.45,-5.45 -12.61,-12.78 -0.18,-8.81 -0.16,-17.63 0.2,-26.44 0.33,-7.96 6.29,-13.69 13.27,-13.4 7.12,0.29 12.4,6.12 12.59,14.03 0.1,4.16 0.02,8.32 0.02,12.47 h 0.06 z"
       id="path3" />
    <path
       class="cls-1"
       d="m 383.48,561.09 c 8,-0.07 14.22,6.21 14.16,14.29 -0.05,7.31 -6.5,13.73 -13.78,13.73 -7.6,0 -13.81,-6.4 -13.79,-14.2 0.02,-7.8 5.79,-13.75 13.4,-13.82 z"
       id="path4" />
    <path
       class="cls-1"
       d="m 370.58,529.14 c 0.06,-7.84 6.22,-13.94 13.94,-13.78 7.2,0.14 13.01,6.29 12.94,13.69 -0.07,7.62 -6.48,13.97 -14.06,13.91 -7.05,-0.05 -12.88,-6.34 -12.83,-13.82 z"
       id="path5" />
    <path
       class="cls-1"
       d="m 204.63,247.26 c 0,-6.92 0.01,-13.84 0,-20.77 -0.01,-5.48 0.28,-5.79 5.86,-5.81 2.8,0 5.59,0.03 8.39,0 2.66,-0.02 4.04,1.25 4.04,3.91 0.03,18.55 0.12,37.11 -0.07,55.66 -0.02,1.63 -1.61,4.17 -3.01,4.63 -1.81,0.6 -4.83,0.26 -6.17,-0.95 -6.39,-5.8 -12.39,-12.03 -18.54,-18.1 -0.97,-0.95 -1.99,-1.84 -3.89,-3.58 0,6.33 0.01,11.6 0,16.88 -0.02,5.77 -0.48,6.22 -6.34,6.23 -2.67,0 -5.34,-0.05 -8.01,0.02 -2.81,0.07 -4.27,-1.07 -4.26,-4.02 0.06,-17.15 -0.05,-34.31 0.25,-51.46 0.03,-1.93 1.93,-4.55 3.69,-5.48 1.26,-0.67 4.26,0.38 5.57,1.62 6.16,5.87 12,12.07 17.97,18.14 1.19,1.21 2.43,2.36 3.65,3.54 l 0.88,-0.44 z"
       id="path8" />
    <path
       class="cls-1"
       d="m 299.57,243.26 c -0.37,7.34 0.13,14.85 -1.29,21.98 -2.54,12.77 -13.84,21.42 -26.85,21.89 -13.58,0.5 -24.98,-7.05 -29.04,-19.62 -0.99,-3.08 -1.24,-6.49 -1.3,-9.76 -0.2,-10.42 -0.17,-20.84 -0.19,-31.26 0,-4.91 0.88,-5.77 5.76,-5.79 2.41,-0.01 4.83,-0.01 7.24,0 4.96,0 5.62,0.67 5.62,5.81 0,10.04 -0.03,20.08 0,30.12 0.01,5.09 2.48,8.71 6.98,10.88 5.9,2.85 12.41,-0.3 13.86,-6.69 0.39,-1.71 0.52,-3.52 0.53,-5.28 0.06,-9.91 0.03,-19.82 0.08,-29.74 0.02,-4.36 0.78,-5.07 5.13,-5.11 2.8,-0.03 5.6,0.1 8.39,-0.04 3.4,-0.18 4.86,1.22 4.78,4.68 -0.14,5.97 -0.04,11.94 -0.04,17.92 0.11,0 0.23,0.01 0.34,0.02 z"
       id="path9" />
    <path
       class="cls-1"
       d="m 336.48,266.65 c 7.7,0 14.9,0 22.1,0 5.19,0 6.18,0.98 6.25,6.21 0.04,2.92 -0.05,5.84 0.02,8.76 0.06,2.59 -1.2,3.69 -3.7,3.68 -12.82,-0.03 -25.64,-0.06 -38.46,-0.05 -2.99,0 -4.38,-1.24 -4.37,-4.35 0.06,-18.53 0.05,-37.06 0.03,-55.6 0,-3.11 1.2,-4.77 4.51,-4.63 2.53,0.11 5.08,0 7.62,0.02 4.8,0.03 6.06,1.34 6.04,6.05 -0.03,11.93 -0.03,23.86 -0.04,35.79 0,1.13 0,2.27 0,4.1 z"
       id="path10" />
    <path
       class="cls-1"
       d="m 397.36,266.65 c 7.7,0 14.9,0 22.1,0 5.19,0 6.18,0.98 6.25,6.21 0.04,2.92 -0.05,5.84 0.02,8.76 0.06,2.59 -1.2,3.69 -3.7,3.68 -12.82,-0.03 -25.64,-0.06 -38.46,-0.05 -2.99,0 -4.38,-1.24 -4.37,-4.35 0.06,-18.53 0.05,-37.06 0.03,-55.6 0,-3.11 1.2,-4.77 4.51,-4.63 2.53,0.11 5.08,0 7.62,0.02 4.8,0.03 6.06,1.34 6.04,6.05 -0.03,11.93 -0.03,23.86 -0.04,35.79 0,1.13 0,2.27 0,4.1 z"
       id="path11" />
  </g>
</svg>
