<svg width="67" height="86" viewBox="0 0 67 86" fill="none" xmlns="http://www.w3.org/2000/svg">
<path d="M58.0882 0.726621C57.6881 2.32483 56.8235 5.67881 56.688 6.11401C56.1847 7.74973 55.6297 8.39502 54.2101 9.01779C53.8423 9.17536 49.4157 10.691 49.3125 10.691C49.2931 10.691 49.2996 10.721 49.3383 10.7586C49.3706 10.7961 50.4288 11.1712 51.6871 11.5914C54.7005 12.5969 55.1974 12.8295 55.7781 13.5123C56.3331 14.1576 56.5783 14.8179 57.3074 17.6991C58.1915 21.1882 58.1463 21.0306 58.2173 20.8205C58.2495 20.7155 58.5464 19.5525 58.8819 18.2319C59.7595 14.7503 59.9208 14.2851 60.4757 13.5798C61.05 12.852 61.6566 12.5669 65.0765 11.4414C66.109 11.1037 66.9672 10.7961 66.9994 10.7736C67.0253 10.7436 66.1541 10.4209 65.0636 10.0533C61.6824 8.92775 61.1404 8.68014 60.5338 7.98233C59.9531 7.29953 59.7079 6.57921 58.6561 2.36235C58.3979 1.3494 58.185 0.509025 58.1721 0.501521C58.1592 0.486515 58.1205 0.584058 58.0882 0.726621Z" fill="#9CA3AF"/>
<path d="M18.8169 12.9645C18.8169 12.9945 18.6297 13.7374 18.4039 14.6078C18.1716 15.4857 17.6231 17.6766 17.1714 19.4699C16.7262 21.2632 16.2035 23.2816 16.0099 23.9569C14.8162 28.1287 13.8354 29.4568 11.0091 30.7474C9.98954 31.2126 8.95065 31.5803 5.00803 32.8934C0.639526 34.349 -0.0251058 34.5741 0.000705107 34.6041C0.0394215 34.6491 2.75602 35.5795 5.67266 36.5475C8.9571 37.6355 10.5574 38.2282 11.564 38.7384C13.6805 39.8039 14.6871 41.1095 15.6292 43.9983C16.0035 45.1388 16.281 46.1668 17.1972 49.8284C18.4039 54.6755 18.8427 56.3188 18.8879 56.2137C18.9459 56.0937 19.7203 53.0923 20.6559 49.3782C22.1981 43.233 22.7208 41.7998 23.921 40.4117C25.1212 39.0311 26.5473 38.3558 32.0772 36.54C34.4131 35.7746 37.5427 34.7016 37.646 34.6341C37.704 34.5966 37.6072 34.5366 37.3878 34.4615C37.2007 34.394 35.1294 33.6962 32.787 32.9159C28.0572 31.3252 26.928 30.905 25.8762 30.3197C23.2951 28.8791 22.6046 27.5585 20.9076 20.8205C19.2234 14.1426 18.8169 12.6044 18.8169 12.9645Z" fill="#9CA3AF"/>
<path d="M45.4602 56.3413C45.2989 56.9715 44.8859 58.5923 44.5504 59.9353C43.4534 64.2948 43.105 65.2477 42.2274 66.2757C41.7822 66.8009 41.6079 66.9435 41.0272 67.2661C40.6529 67.4762 40.0915 67.7538 39.7689 67.8814C39.3108 68.069 34.0002 69.8773 32.8838 70.2224C32.6064 70.3124 32.5677 70.395 32.787 70.455C33.1871 70.5526 38.9042 72.5034 39.556 72.766C41.0336 73.3438 41.7757 73.8315 42.4016 74.6419C43.0533 75.4747 43.4986 76.6678 44.2213 79.519C45.1569 83.1881 45.7441 85.4767 45.77 85.4992C45.7958 85.5367 46.1184 84.3061 47.1508 80.1718C48.0994 76.3976 48.4607 75.4297 49.3125 74.4468C50.1772 73.4413 50.9579 73.0587 54.5586 71.8581C57.0751 71.0178 58.7851 70.4325 58.8625 70.3725C58.9335 70.3275 59.0368 70.3575 55.4491 69.1569C53.8552 68.6242 52.2033 68.0539 51.7839 67.8814C49.8932 67.1235 49.0608 66.3582 48.3898 64.7675C48.0284 63.9196 47.7058 62.7716 46.8992 59.5527C46.1765 56.6639 45.8151 55.2683 45.7764 55.2233C45.7699 55.2083 45.628 55.7185 45.4602 56.3413Z" fill="#9CA3AF"/>
</svg>
