<svg version="1.1" xmlns="http://www.w3.org/2000/svg" viewBox="0 0 6079.219317515882 2506.928389232816" width="6079.219317515882" height="2506.928389232816">
  <!-- svg-source:excalidraw -->
  
  <defs>
    <style class="style-fonts">
      @font-face {
        font-family: "Virgil";
        src: url("https://excalidraw.com/Virgil.woff2");
      }
      @font-face {
        font-family: "Cascadia";
        src: url("https://excalidraw.com/Cascadia.woff2");
      }
    </style>
  </defs>
  <rect x="0" y="0" width="6079.219317515882" height="2506.928389232816" fill="#ffffff"></rect><g stroke-linecap="round" transform="translate(10 1089.6605280547942) rotate(0 897.9999999999995 172)"><path d="M32 0 M32 0 C434.32 5.44, 837.5 4.54, 1764 0 M32 0 C504.5 -4.8, 977.94 -5.28, 1764 0 M1764 0 C1784.58 1.31, 1795.68 11.29, 1796 32 M1764 0 C1784.04 -2.09, 1796 8.98, 1796 32 M1796 32 C1798.07 125.91, 1796.2 220.33, 1796 312 M1796 32 C1795.79 121.81, 1796.46 212.25, 1796 312 M1796 312 C1794.38 332.57, 1786.99 345.05, 1764 344 M1796 312 C1797.58 335.3, 1787.02 345.86, 1764 344 M1764 344 C1189.32 341.98, 613.67 342.23, 32 344 M1764 344 C1122.12 344.04, 480.62 343.66, 32 344 M32 344 C9.71 344.47, 0.05 334.12, 0 312 M32 344 C8.95 342.56, 0.63 333.55, 0 312 M0 312 C-1.5 209.98, -3.01 105.02, 0 32 M0 312 C-0.02 218.3, 0.09 126.08, 0 32 M0 32 C1.32 10.61, 11.29 -1.08, 32 0 M0 32 C-0.52 10.36, 12.77 1.37, 32 0" stroke="#343a40" stroke-width="1" fill="none"></path></g><g transform="translate(842.3000030517569 1239.1605280547942) rotate(0 65.69999694824219 22.5)"><text x="65.69999694824219" y="0" font-family="Virgil, Segoe UI Emoji" font-size="36px" fill="#343a40" text-anchor="middle" style="white-space: pre;" direction="ltr" dominant-baseline="text-before-edge">physical</text></g><g stroke-linecap="round" transform="translate(16.763242823813016 743.6004310828275) rotate(0 892.5 167.5)"><path d="M32 0 M32 0 C438.78 -4.47, 844.75 -4.88, 1753 0 M32 0 C509.53 -6.16, 986.87 -6.02, 1753 0 M1753 0 C1772.55 -1.23, 1783.52 10.6, 1785 32 M1753 0 C1773.28 1.09, 1785.23 8.42, 1785 32 M1785 32 C1786.77 138.12, 1785.06 243.81, 1785 303 M1785 32 C1782.95 112.56, 1782.54 193.57, 1785 303 M1785 303 C1783.5 324.95, 1773.29 336.04, 1753 335 M1785 303 C1782.73 326, 1774.3 336.14, 1753 335 M1753 335 C1112.12 334.2, 471.35 332.87, 32 335 M1753 335 C1180.23 332.75, 607.94 332.22, 32 335 M32 335 C11.63 334.38, -0.33 323.35, 0 303 M32 335 C9.4 335.18, 0.54 324.69, 0 303 M0 303 C0.09 205.81, -0.17 105.13, 0 32 M0 303 C-1.61 202.53, -0.84 100.56, 0 32 M0 32 C-0.93 8.9, 12.05 -0.58, 32 0 M0 32 C1.04 11.59, 11.31 -0.3, 32 0" stroke="#343a40" stroke-width="1" fill="none"></path></g><g transform="translate(732.0632458755708 888.6004310828275) rotate(0 177.1999969482422 22.5)"><text x="177.1999969482422" y="0" font-family="Virgil, Segoe UI Emoji" font-size="36px" fill="#343a40" text-anchor="middle" style="white-space: pre;" direction="ltr" dominant-baseline="text-before-edge">physical management</text></g><g stroke-linecap="round" transform="translate(14.639130801598185 409.13219811184445) rotate(0 891.5 160.5)"><path d="M32 0 M32 0 C463.77 -0.4, 895.68 -0.26, 1751 0 M32 0 C488.99 -6.3, 945.99 -5.91, 1751 0 M1751 0 C1772.85 -1.25, 1784.41 11.4, 1783 32 M1751 0 C1771.15 -1.07, 1780.97 12.25, 1783 32 M1783 32 C1784.39 101.39, 1783.16 170.81, 1783 289 M1783 32 C1781.44 94.35, 1781.41 155.9, 1783 289 M1783 289 C1781.69 311.72, 1771.2 319.65, 1751 321 M1783 289 C1784.84 309.91, 1770.3 320.14, 1751 321 M1751 321 C1098.84 316.73, 444.59 317.22, 32 321 M1751 321 C1374.58 320.07, 997.45 320.35, 32 321 M32 321 C10.81 320.29, 0.64 311.67, 0 289 M32 321 C10.78 321.56, -0.45 308.61, 0 289 M0 289 C1.31 236.72, 2.51 183.31, 0 32 M0 289 C-0.83 201.72, -1.51 114.43, 0 32 M0 32 C1.92 10.29, 9.19 0.05, 32 0 M0 32 C0.95 8.57, 11.94 0.19, 32 0" stroke="#343a40" stroke-width="1" fill="none"></path></g><g transform="translate(712.314133853356 502.13219811184445) rotate(0 193.8249969482422 67.5)"><text x="193.8249969482422" y="0" font-family="Virgil, Segoe UI Emoji" font-size="36px" fill="#343a40" text-anchor="middle" style="white-space: pre;" direction="ltr" dominant-baseline="text-before-edge">services</text><text x="193.8249969482422" y="45" font-family="Virgil, Segoe UI Emoji" font-size="36px" fill="#343a40" text-anchor="middle" style="white-space: pre;" direction="ltr" dominant-baseline="text-before-edge">customer portal</text><text x="193.8249969482422" y="90" font-family="Virgil, Segoe UI Emoji" font-size="36px" fill="#343a40" text-anchor="middle" style="white-space: pre;" direction="ltr" dominant-baseline="text-before-edge">vm's as a service ect</text></g><g stroke-linecap="round" transform="translate(351.15511378540305 85.71787278495412) rotate(0 578.076836454371 147.55277773478474)"><path d="M32 0 M32 0 C339.7 1.55, 646.13 1.34, 1124.15 0 M32 0 C410.18 3.2, 788.15 3.24, 1124.15 0 M1124.15 0 C1146.73 1.42, 1157.2 8.68, 1156.15 32 M1124.15 0 C1147.59 -1.96, 1155.58 9.69, 1156.15 32 M1156.15 32 C1157.35 121.76, 1157 208.15, 1156.15 263.11 M1156.15 32 C1156.54 92.75, 1155.78 153.28, 1156.15 263.11 M1156.15 263.11 C1157.47 282.96, 1143.84 296.97, 1124.15 295.11 M1156.15 263.11 C1157.49 282.9, 1144.31 295.56, 1124.15 295.11 M1124.15 295.11 C834.84 290.77, 544.2 290.43, 32 295.11 M1124.15 295.11 C742.64 293.48, 360.88 293.28, 32 295.11 M32 295.11 C9.88 296.33, 0.8 282.49, 0 263.11 M32 295.11 C11.8 292.86, 2.12 285.31, 0 263.11 M0 263.11 C-1.21 189.11, 0.58 115.68, 0 32 M0 263.11 C1.32 206.04, 1.04 149.69, 0 32 M0 32 C0.05 9.03, 10.27 0, 32 0 M0 32 C-0.26 10.98, 11.88 -2.03, 32 0" stroke="#343a40" stroke-width="1" fill="none"></path></g><g transform="translate(697.9569563432897 210.77065051973932) rotate(0 231.27499389648438 22.5)"><text x="231.27499389648438" y="0" font-family="Virgil, Segoe UI Emoji" font-size="36px" fill="#343a40" text-anchor="middle" style="white-space: pre;" direction="ltr" dominant-baseline="text-before-edge">layers of a cloud provider</text></g><g stroke-linecap="round"><g transform="translate(1802.4143421637136 581.0865572485209) rotate(0 169.50845629895684 2.5657180428756874)"><path d="M-0.14 1.04 C56.75 1.73, 283.88 2.97, 340.69 3.16 M-1.67 0.54 C55.11 1.5, 282.79 4.2, 339.72 4.59" stroke="#343a40" stroke-width="1" fill="none"></path></g><g transform="translate(1802.4143421637136 581.0865572485209) rotate(0 169.50845629895684 2.5657180428756874)"><path d="M313.16 14.5 C318.14 12.05, 323.49 10.97, 340.08 5.34 M310.78 13.88 C318.6 13.24, 323.99 10, 339.79 3.83" stroke="#343a40" stroke-width="1" fill="none"></path></g><g transform="translate(1802.4143421637136 581.0865572485209) rotate(0 169.50845629895684 2.5657180428756874)"><path d="M313.36 -6.02 C318.13 -3.41, 323.43 0.56, 340.08 5.34 M310.98 -6.64 C318.56 -2.42, 323.91 -0.8, 339.79 3.83" stroke="#343a40" stroke-width="1" fill="none"></path></g></g><mask></mask><g stroke-linecap="round" transform="translate(2154.7936732013904 413.82865485309503) rotate(0 476.6343017617064 162.1139071165071)"><path d="M32 0 M32 0 C363.85 2.37, 695.74 2.25, 921.27 0 M32 0 C277.74 1.92, 524.25 1.32, 921.27 0 M921.27 0 C940.63 -0.85, 954.46 11.83, 953.27 32 M921.27 0 C940.43 1.89, 953.21 12.66, 953.27 32 M953.27 32 C951.42 84.59, 951.18 137.2, 953.27 292.23 M953.27 32 C950.7 97.68, 950.81 163.89, 953.27 292.23 M953.27 292.23 C954.53 314.34, 943.5 325.68, 921.27 324.23 M953.27 292.23 C952.8 312.44, 944.88 324.28, 921.27 324.23 M921.27 324.23 C585.03 326.2, 247.19 325.4, 32 324.23 M921.27 324.23 C694.29 320.66, 467.25 321.04, 32 324.23 M32 324.23 C10.73 323.76, 1.24 315.13, 0 292.23 M32 324.23 C9.34 324.03, 0.66 315.54, 0 292.23 M0 292.23 C-1.25 191.88, -3.18 93.23, 0 32 M0 292.23 C-0.54 211.2, -0.31 129.18, 0 32 M0 32 C0.21 12.15, 11.44 0.49, 32 0 M0 32 C-1.83 10.36, 9.98 1.07, 32 0" stroke="#343a40" stroke-width="1" fill="none"></path></g><g transform="translate(2452.4196436642696 508.44256196960214) rotate(0 179.00833129882812 67.5)"><text x="179.00833129882812" y="0" font-family="Virgil, Segoe UI Emoji" font-size="36px" fill="#343a40" text-anchor="middle" style="white-space: pre;" direction="ltr" dominant-baseline="text-before-edge">code name eddington</text><text x="179.00833129882812" y="45" font-family="Virgil, Segoe UI Emoji" font-size="36px" fill="#343a40" text-anchor="middle" style="white-space: pre;" direction="ltr" dominant-baseline="text-before-edge">k8s cluster</text><text x="179.00833129882812" y="90" font-family="Virgil, Segoe UI Emoji" font-size="36px" fill="#343a40" text-anchor="middle" style="white-space: pre;" direction="ltr" dominant-baseline="text-before-edge"></text></g><g stroke-linecap="round"><g transform="translate(1805.3265680400573 924.4477331770604) rotate(0 166.599954146267 2.723745307427407)"><path d="M-0.06 0.91 C55.62 1.57, 278.89 3.3, 334.75 3.55 M-1.55 0.35 C53.91 1.24, 277.72 4.63, 333.72 5.1" stroke="#343a40" stroke-width="1" fill="none"></path></g><g transform="translate(1805.3265680400573 924.4477331770604) rotate(0 166.599954146267 2.723745307427407)"><path d="M306.93 14.75 C315.49 11.88, 323.63 9.52, 334.68 4.92 M304.77 15.09 C316.56 10.59, 325.15 7.71, 334.41 6.04" stroke="#343a40" stroke-width="1" fill="none"></path></g><g transform="translate(1805.3265680400573 924.4477331770604) rotate(0 166.599954146267 2.723745307427407)"><path d="M307.18 -5.77 C315.59 -1.38, 323.64 3.51, 334.68 4.92 M305.02 -5.43 C316.7 -2.43, 325.2 2.2, 334.41 6.04" stroke="#343a40" stroke-width="1" fill="none"></path></g></g><mask></mask><g stroke-linecap="round" transform="translate(2152.852189283828 778.8276313549313) rotate(0 481.0026405762228 149.00889067295702)"><path d="M32 0 M32 0 C298.96 -2.66, 566.74 -2.32, 930.01 0 M32 0 C281.93 -0.32, 531.74 -0.29, 930.01 0 M930.01 0 C952.93 -0.8, 962.65 11.49, 962.01 32 M930.01 0 C950.96 -0.67, 960.67 11.57, 962.01 32 M962.01 32 C964.05 78.97, 962.58 127.76, 962.01 266.02 M962.01 32 C962.44 96.49, 962.85 159.7, 962.01 266.02 M962.01 266.02 C962.41 288.04, 949.36 299.39, 930.01 298.02 M962.01 266.02 C961.32 286.78, 949.14 298.52, 930.01 298.02 M930.01 298.02 C656.1 297.65, 382.67 298.47, 32 298.02 M930.01 298.02 C672.86 299.18, 415.44 299.02, 32 298.02 M32 298.02 C9.48 297.52, 0.72 288.83, 0 266.02 M32 298.02 C11.71 299.91, -0.22 287.76, 0 266.02 M0 266.02 C1.67 182.85, 2.03 100.89, 0 32 M0 266.02 C-0.95 186.14, -1.86 106.47, 0 32 M0 32 C-1.67 8.74, 10.59 1.57, 32 0 M0 32 C0.21 10.78, 8.42 -1.83, 32 0" stroke="#343a40" stroke-width="1" fill="none"></path></g><g transform="translate(2157.852189283828 837.8365220278883) rotate(0 145.85833740234375 90)"><text x="0" y="0" font-family="Virgil, Segoe UI Emoji" font-size="36px" fill="#343a40" text-anchor="start" style="white-space: pre;" direction="ltr" dominant-baseline="text-before-edge">like bottlerocket</text><text x="0" y="45" font-family="Virgil, Segoe UI Emoji" font-size="36px" fill="#343a40" text-anchor="start" style="white-space: pre;" direction="ltr" dominant-baseline="text-before-edge">BUT...</text><text x="0" y="90" font-family="Virgil, Segoe UI Emoji" font-size="36px" fill="#343a40" text-anchor="start" style="white-space: pre;" direction="ltr" dominant-baseline="text-before-edge">legion &amp;&amp; aura</text><text x="0" y="135" font-family="Virgil, Segoe UI Emoji" font-size="36px" fill="#343a40" text-anchor="start" style="white-space: pre;" direction="ltr" dominant-baseline="text-before-edge">part1/part2</text></g><g stroke-linecap="round" transform="translate(2524.646359497133 801.1546964069048) rotate(0 288.79573273749065 131.0501644354997)"><path d="M32 0 M32 0 C144.85 1.6, 258.35 1.66, 545.59 0 M32 0 C202.43 -0.92, 373.53 -0.66, 545.59 0 M545.59 0 C568.32 -1.01, 576.83 11.12, 577.59 32 M545.59 0 C567.12 1.9, 579.61 12.57, 577.59 32 M577.59 32 C575.96 92.65, 577.74 155.11, 577.59 230.1 M577.59 32 C579.28 86.9, 579.53 144.02, 577.59 230.1 M577.59 230.1 C577.72 249.73, 567 261.54, 545.59 262.1 M577.59 230.1 C578.28 250, 565.49 262.57, 545.59 262.1 M545.59 262.1 C426.55 259.71, 308.82 259.66, 32 262.1 M545.59 262.1 C377.44 262.4, 209.08 261.95, 32 262.1 M32 262.1 C9.2 263.19, 0.41 250.28, 0 230.1 M32 262.1 C12.87 263.46, 1.2 250.18, 0 230.1 M0 230.1 C-3.12 159.42, -1.46 87.38, 0 32 M0 230.1 C-0.73 177.25, -0.25 125.85, 0 32 M0 32 C-1.34 11.6, 11.38 -0.32, 32 0 M0 32 C0.99 11.25, 12.33 0.58, 32 0" stroke="#343a40" stroke-width="1" fill="none"></path></g><g transform="translate(2531.0254357404838 887.2048608424047) rotate(0 282.4166564941406 45)"><text x="282.4166564941406" y="0" font-family="Virgil, Segoe UI Emoji" font-size="36px" fill="#343a40" text-anchor="middle" style="white-space: pre;" direction="ltr" dominant-baseline="text-before-edge">provides - physical server </text><text x="282.4166564941406" y="45" font-family="Virgil, Segoe UI Emoji" font-size="36px" fill="#343a40" text-anchor="middle" style="white-space: pre;" direction="ltr" dominant-baseline="text-before-edge">updates, clustering and k8saas</text></g><g stroke-linecap="round"><g transform="translate(1812.1217617515276 1281.671966003737) rotate(0 161.6302851300461 0.8623535838673888)"><path d="M0.38 1 C54.28 1.15, 270.34 0.2, 324.14 0.26 M-0.88 0.47 C52.79 0.82, 268.74 1.64, 323.14 1.43" stroke="#343a40" stroke-width="1" fill="none"></path></g><g transform="translate(1812.1217617515276 1281.671966003737) rotate(0 161.6302851300461 0.8623535838673888)"><path d="M296.61 11.52 C304.05 6.11, 316.09 5.45, 322.04 2.1 M295.1 11.8 C303.04 9.28, 311.04 5.86, 322.77 2.01" stroke="#343a40" stroke-width="1" fill="none"></path></g><g transform="translate(1812.1217617515276 1281.671966003737) rotate(0 161.6302851300461 0.8623535838673888)"><path d="M296.62 -9 C303.95 -6.96, 315.98 -0.18, 322.04 2.1 M295.11 -8.73 C303.08 -5.12, 311.07 -2.41, 322.77 2.01" stroke="#343a40" stroke-width="1" fill="none"></path></g></g><mask></mask><g stroke-linecap="round" transform="translate(2147.99847948992 1115.675091052104) rotate(0 478.57578567926885 152.4064875286922)"><path d="M32 0 M32 0 C246.71 2.05, 460.87 1.66, 925.15 0 M32 0 C332 1.04, 632.59 0.69, 925.15 0 M925.15 0 C944.64 1.96, 958.97 10.66, 957.15 32 M925.15 0 C948.46 0.41, 955.14 10.27, 957.15 32 M957.15 32 C958 100.7, 956.51 170.81, 957.15 272.81 M957.15 32 C955.66 93.87, 955.55 156.37, 957.15 272.81 M957.15 272.81 C957.51 293.73, 947.44 305.02, 925.15 304.81 M957.15 272.81 C956.25 296.19, 947.39 305.11, 925.15 304.81 M925.15 304.81 C676.21 306.73, 427.23 305.48, 32 304.81 M925.15 304.81 C597.98 303.62, 270.69 303.94, 32 304.81 M32 304.81 C9.77 306.71, 0.1 293.94, 0 272.81 M32 304.81 C11.85 307.05, -2.08 295.59, 0 272.81 M0 272.81 C-0.76 219.33, -0.6 164.54, 0 32 M0 272.81 C-0.36 220.39, -0.46 167.86, 0 32 M0 32 C-0.68 9.39, 9.05 0.21, 32 0 M0 32 C-2 12.02, 12.27 -1.19, 32 0" stroke="#343a40" stroke-width="1" fill="none"></path></g><g transform="translate(2405.757599519776 1200.5815785807963) rotate(0 220.81666564941406 67.5)"><text x="220.81666564941406" y="0" font-family="Virgil, Segoe UI Emoji" font-size="36px" fill="#343a40" text-anchor="middle" style="white-space: pre;" direction="ltr" dominant-baseline="text-before-edge">buying managing hardware</text><text x="220.81666564941406" y="45" font-family="Virgil, Segoe UI Emoji" font-size="36px" fill="#343a40" text-anchor="middle" style="white-space: pre;" direction="ltr" dominant-baseline="text-before-edge">plugging cables</text><text x="220.81666564941406" y="90" font-family="Virgil, Segoe UI Emoji" font-size="36px" fill="#343a40" text-anchor="middle" style="white-space: pre;" direction="ltr" dominant-baseline="text-before-edge">buying datacenters</text></g><g mask="url(#mask-XqWh1xHmgsIh7xtwnVFK4)" stroke-linecap="round"><g transform="translate(3246.878376830552 406.06271918284256) rotate(0 6.481966161344644 514.448022349346)"><path d="M0.24 -0.71 C2.73 170.71, 11.84 856.94, 14.06 1028.39 M-1.1 1.52 C1.36 173.11, 11.04 858.4, 13.36 1029.61" stroke="#343a40" stroke-width="1" fill="none"></path></g><g transform="translate(3246.878376830552 406.06271918284256) rotate(0 6.481966161344644 514.448022349346)"><path d="M1.52 1002.35 C4.08 1007.86, 5.81 1014.87, 13.63 1030.48 M2.37 1000.93 C5.03 1009.72, 8.01 1018.2, 14.06 1029.1" stroke="#343a40" stroke-width="1" fill="none"></path></g><g transform="translate(3246.878376830552 406.06271918284256) rotate(0 6.481966161344644 514.448022349346)"><path d="M22.04 1002.07 C19.98 1007.68, 17.11 1014.76, 13.63 1030.48 M22.89 1000.64 C19.7 1009.43, 16.82 1018, 14.06 1029.1" stroke="#343a40" stroke-width="1" fill="none"></path></g></g><mask id="mask-XqWh1xHmgsIh7xtwnVFK4"><rect x="0" y="0" fill="#fff" width="3360.4687642534946" height="1535.0491954912104"></rect><rect x="3167.8569048926092" y="898.0559573370265" fill="#000" width="171.63333129882812" height="45" opacity="1"></rect></mask><g transform="translate(3167.8569048926092 898.0559573370265) rotate(0 85.50343809928654 22.45478419516212)"><text x="85.81666564941406" y="0" font-family="Virgil, Segoe UI Emoji" font-size="36px" fill="#343a40" text-anchor="middle" style="white-space: pre;" direction="ltr" dominant-baseline="text-before-edge">sequence </text></g><g transform="translate(4056.5842517750125 21.648903505377348) rotate(0 972.8333129882812 270)"><text x="0" y="0" font-family="Virgil, Segoe UI Emoji" font-size="36px" fill="#343a40" text-anchor="start" style="white-space: pre;" direction="ltr" dominant-baseline="text-before-edge">July Goals:</text><text x="0" y="45" font-family="Virgil, Segoe UI Emoji" font-size="36px" fill="#343a40" text-anchor="start" style="white-space: pre;" direction="ltr" dominant-baseline="text-before-edge"></text><text x="0" y="90" font-family="Virgil, Segoe UI Emoji" font-size="36px" fill="#343a40" text-anchor="start" style="white-space: pre;" direction="ltr" dominant-baseline="text-before-edge">- you can login to</text><text x="0" y="135" font-family="Virgil, Segoe UI Emoji" font-size="36px" fill="#343a40" text-anchor="start" style="white-space: pre;" direction="ltr" dominant-baseline="text-before-edge">- lets you deploy any dockerfile or prebuilt container</text><text x="0" y="180" font-family="Virgil, Segoe UI Emoji" font-size="36px" fill="#343a40" text-anchor="start" style="white-space: pre;" direction="ltr" dominant-baseline="text-before-edge">- lets you deploy a node-js (should be any in future) application without a dockerfile with just a github repo</text><text x="0" y="225" font-family="Virgil, Segoe UI Emoji" font-size="36px" fill="#343a40" text-anchor="start" style="white-space: pre;" direction="ltr" dominant-baseline="text-before-edge">  should be able to track and auto update based on branch or tag??? (tag is maybe stretch goal)</text><text x="0" y="270" font-family="Virgil, Segoe UI Emoji" font-size="36px" fill="#343a40" text-anchor="start" style="white-space: pre;" direction="ltr" dominant-baseline="text-before-edge">  only public repos for july</text><text x="0" y="315" font-family="Virgil, Segoe UI Emoji" font-size="36px" fill="#343a40" text-anchor="start" style="white-space: pre;" direction="ltr" dominant-baseline="text-before-edge">- exposes that container via a unique URL</text><text x="0" y="360" font-family="Virgil, Segoe UI Emoji" font-size="36px" fill="#343a40" text-anchor="start" style="white-space: pre;" direction="ltr" dominant-baseline="text-before-edge"></text><text x="0" y="405" font-family="Virgil, Segoe UI Emoji" font-size="36px" fill="#343a40" text-anchor="start" style="white-space: pre;" direction="ltr" dominant-baseline="text-before-edge">stretch goals:</text><text x="0" y="450" font-family="Virgil, Segoe UI Emoji" font-size="36px" fill="#343a40" text-anchor="start" style="white-space: pre;" direction="ltr" dominant-baseline="text-before-edge"></text><text x="0" y="495" font-family="Virgil, Segoe UI Emoji" font-size="36px" fill="#343a40" text-anchor="start" style="white-space: pre;" direction="ltr" dominant-baseline="text-before-edge">- expose logs in UI</text></g><g stroke-linecap="round" transform="translate(3989.4959752983805 10) rotate(0 1039.8616711087507 326.65466912996817)"><path d="M32 0 M32 0 C610.48 6.73, 1190.24 5.87, 2047.72 0 M32 0 C660.53 6.15, 1288.25 5.96, 2047.72 0 M2047.72 0 C2068.57 0.93, 2080.42 9.37, 2079.72 32 M2047.72 0 C2069.75 2.13, 2078.2 12.33, 2079.72 32 M2079.72 32 C2078.37 256.08, 2077.86 480.01, 2079.72 621.31 M2079.72 32 C2080.49 260.8, 2080.95 488.94, 2079.72 621.31 M2079.72 621.31 C2078.78 641.32, 2069.12 654.64, 2047.72 653.31 M2079.72 621.31 C2078.13 644.58, 2068.26 652.77, 2047.72 653.31 M2047.72 653.31 C1372.88 658.49, 698.8 658.89, 32 653.31 M2047.72 653.31 C1526.06 652.78, 1005.38 652.55, 32 653.31 M32 653.31 C9.29 654.12, 1.95 642.75, 0 621.31 M32 653.31 C10.98 654.16, -1.24 643.45, 0 621.31 M0 621.31 C1.48 389.9, 1.28 158.02, 0 32 M0 621.31 C1.07 399.7, 1.58 177.16, 0 32 M0 32 C-1.44 11.69, 12.34 -1.59, 32 0 M0 32 C1.2 12.88, 11.03 -0.95, 32 0" stroke="#343a40" stroke-width="1" fill="none"></path></g><g stroke-linecap="round" transform="translate(3992.458445799545 686.9283892328158) rotate(0 1038 905)"><path d="M32 0 M32 0 C551.69 0.62, 1073.32 0.17, 2044 0 M32 0 C496.92 -7.81, 961.95 -8.08, 2044 0 M2044 0 C2066.03 1.85, 2075.07 10.38, 2076 32 M2044 0 C2066.43 -0.13, 2076.51 9.04, 2076 32 M2076 32 C2071.64 690.21, 2072.65 1346.55, 2076 1778 M2076 32 C2079.24 430.34, 2079.94 828.32, 2076 1778 M2076 1778 C2075.17 1799.74, 2064.49 1811.64, 2044 1810 M2076 1778 C2075.12 1799.06, 2063.09 1810.02, 2044 1810 M2044 1810 C1597.8 1811.86, 1150.11 1811.29, 32 1810 M2044 1810 C1528.61 1816.1, 1012.14 1816.29, 32 1810 M32 1810 C11.95 1809.84, 1.15 1800.7, 0 1778 M32 1810 C11.76 1809.54, -0.8 1799.8, 0 1778 M0 1778 C0.65 1307.36, 0.79 837.51, 0 32 M0 1778 C2.32 1240.08, 2.47 701.68, 0 32 M0 32 C-1.2 10.15, 10.48 -1.96, 32 0 M0 32 C-0.36 10.2, 8.9 0.17, 32 0" stroke="#343a40" stroke-width="1" fill="none"></path></g><g transform="translate(3997.458445799545 691.9283892328158) rotate(0 899.558349609375 900)"><text x="0" y="0" font-family="Virgil, Segoe UI Emoji" font-size="36px" fill="#343a40" text-anchor="start" style="white-space: pre;" direction="ltr" dominant-baseline="text-before-edge">  Components to make this all work: (everything in go unless stated otherwise)</text><text x="0" y="45" font-family="Virgil, Segoe UI Emoji" font-size="36px" fill="#343a40" text-anchor="start" style="white-space: pre;" direction="ltr" dominant-baseline="text-before-edge"></text><text x="0" y="90" font-family="Virgil, Segoe UI Emoji" font-size="36px" fill="#343a40" text-anchor="start" style="white-space: pre;" direction="ltr" dominant-baseline="text-before-edge">    1) UI - atnomoverflow</text><text x="0" y="135" font-family="Virgil, Segoe UI Emoji" font-size="36px" fill="#343a40" text-anchor="start" style="white-space: pre;" direction="ltr" dominant-baseline="text-before-edge">        a) vue.js</text><text x="0" y="180" font-family="Virgil, Segoe UI Emoji" font-size="36px" fill="#343a40" text-anchor="start" style="white-space: pre;" direction="ltr" dominant-baseline="text-before-edge">        b) tailwind</text><text x="0" y="225" font-family="Virgil, Segoe UI Emoji" font-size="36px" fill="#343a40" text-anchor="start" style="white-space: pre;" direction="ltr" dominant-baseline="text-before-edge">        d) typescript</text><text x="0" y="270" font-family="Virgil, Segoe UI Emoji" font-size="36px" fill="#343a40" text-anchor="start" style="white-space: pre;" direction="ltr" dominant-baseline="text-before-edge">    2) Git/github watcher - dvd???</text><text x="0" y="315" font-family="Virgil, Segoe UI Emoji" font-size="36px" fill="#343a40" text-anchor="start" style="white-space: pre;" direction="ltr" dominant-baseline="text-before-edge">        a) needs to watch for updates to a git repo</text><text x="0" y="360" font-family="Virgil, Segoe UI Emoji" font-size="36px" fill="#343a40" text-anchor="start" style="white-space: pre;" direction="ltr" dominant-baseline="text-before-edge">        b) needs to call appropriate update service to update deploy</text><text x="0" y="405" font-family="Virgil, Segoe UI Emoji" font-size="36px" fill="#343a40" text-anchor="start" style="white-space: pre;" direction="ltr" dominant-baseline="text-before-edge">        c) base our work on https://github.com/fluxcd/source-controller (wrap this maybe?)</text><text x="0" y="450" font-family="Virgil, Segoe UI Emoji" font-size="36px" fill="#343a40" text-anchor="start" style="white-space: pre;" direction="ltr" dominant-baseline="text-before-edge">           https://github.com/argoproj/argo-cd/blob/master/go.mod ?</text><text x="0" y="495" font-family="Virgil, Segoe UI Emoji" font-size="36px" fill="#343a40" text-anchor="start" style="white-space: pre;" direction="ltr" dominant-baseline="text-before-edge">    3) Service that builds a container - n1t3h0und??? </text><text x="0" y="540" font-family="Virgil, Segoe UI Emoji" font-size="36px" fill="#343a40" text-anchor="start" style="white-space: pre;" direction="ltr" dominant-baseline="text-before-edge">        a) service that can build a container given a git repo</text><text x="0" y="585" font-family="Virgil, Segoe UI Emoji" font-size="36px" fill="#343a40" text-anchor="start" style="white-space: pre;" direction="ltr" dominant-baseline="text-before-edge">            - does the git repo get attached to service, or does the service pull repo?</text><text x="0" y="630" font-family="Virgil, Segoe UI Emoji" font-size="36px" fill="#343a40" text-anchor="start" style="white-space: pre;" direction="ltr" dominant-baseline="text-before-edge">        b) service needs to push the image to a container registry</text><text x="0" y="675" font-family="Virgil, Segoe UI Emoji" font-size="36px" fill="#343a40" text-anchor="start" style="white-space: pre;" direction="ltr" dominant-baseline="text-before-edge">            - what registry? harbor is hard to deploy but is probably best eventually?</text><text x="0" y="720" font-family="Virgil, Segoe UI Emoji" font-size="36px" fill="#343a40" text-anchor="start" style="white-space: pre;" direction="ltr" dominant-baseline="text-before-edge">            - maybe initially we use s3</text><text x="0" y="765" font-family="Virgil, Segoe UI Emoji" font-size="36px" fill="#343a40" text-anchor="start" style="white-space: pre;" direction="ltr" dominant-baseline="text-before-edge">            - https://goharbor.io/docs/2.8.0/install-config/ easy enough to set up ourselves? maybe?</text><text x="0" y="810" font-family="Virgil, Segoe UI Emoji" font-size="36px" fill="#343a40" text-anchor="start" style="white-space: pre;" direction="ltr" dominant-baseline="text-before-edge">        c) needs to event when container is built (nats.io) (maybe stretch goal?) </text><text x="0" y="855" font-family="Virgil, Segoe UI Emoji" font-size="36px" fill="#343a40" text-anchor="start" style="white-space: pre;" direction="ltr" dominant-baseline="text-before-edge">        d) should store container as /customer-id/git-repo-name/{sha}</text><text x="0" y="900" font-family="Virgil, Segoe UI Emoji" font-size="36px" fill="#343a40" text-anchor="start" style="white-space: pre;" direction="ltr" dominant-baseline="text-before-edge">        e) only want to store last 3 container images (stretch goal)</text><text x="0" y="945" font-family="Virgil, Segoe UI Emoji" font-size="36px" fill="#343a40" text-anchor="start" style="white-space: pre;" direction="ltr" dominant-baseline="text-before-edge">    4) login - ory - Marek/atnomoverflow</text><text x="0" y="990" font-family="Virgil, Segoe UI Emoji" font-size="36px" fill="#343a40" text-anchor="start" style="white-space: pre;" direction="ltr" dominant-baseline="text-before-edge">        a) use ory network</text><text x="0" y="1035" font-family="Virgil, Segoe UI Emoji" font-size="36px" fill="#343a40" text-anchor="start" style="white-space: pre;" direction="ltr" dominant-baseline="text-before-edge">    5) container runner - Marek(Klavenx)</text><text x="0" y="1080" font-family="Virgil, Segoe UI Emoji" font-size="36px" fill="#343a40" text-anchor="start" style="white-space: pre;" direction="ltr" dominant-baseline="text-before-edge">        a) take an image, run it in a customer namespace</text><text x="0" y="1125" font-family="Virgil, Segoe UI Emoji" font-size="36px" fill="#343a40" text-anchor="start" style="white-space: pre;" direction="ltr" dominant-baseline="text-before-edge">        b) update istio virtual service/gate to expose application</text><text x="0" y="1170" font-family="Virgil, Segoe UI Emoji" font-size="36px" fill="#343a40" text-anchor="start" style="white-space: pre;" direction="ltr" dominant-baseline="text-before-edge">        c) update app service with rout to new service</text><text x="0" y="1215" font-family="Virgil, Segoe UI Emoji" font-size="36px" fill="#343a40" text-anchor="start" style="white-space: pre;" direction="ltr" dominant-baseline="text-before-edge">    6) api service - Marek</text><text x="0" y="1260" font-family="Virgil, Segoe UI Emoji" font-size="36px" fill="#343a40" text-anchor="start" style="white-space: pre;" direction="ltr" dominant-baseline="text-before-edge">        a) user service</text><text x="0" y="1305" font-family="Virgil, Segoe UI Emoji" font-size="36px" fill="#343a40" text-anchor="start" style="white-space: pre;" direction="ltr" dominant-baseline="text-before-edge">            - create a new user</text><text x="0" y="1350" font-family="Virgil, Segoe UI Emoji" font-size="36px" fill="#343a40" text-anchor="start" style="white-space: pre;" direction="ltr" dominant-baseline="text-before-edge">                1) create namespace for user</text><text x="0" y="1395" font-family="Virgil, Segoe UI Emoji" font-size="36px" fill="#343a40" text-anchor="start" style="white-space: pre;" direction="ltr" dominant-baseline="text-before-edge">                2) create istio network policies to limit namespace to itself</text><text x="0" y="1440" font-family="Virgil, Segoe UI Emoji" font-size="36px" fill="#343a40" text-anchor="start" style="white-space: pre;" direction="ltr" dominant-baseline="text-before-edge">            - CRUD user</text><text x="0" y="1485" font-family="Virgil, Segoe UI Emoji" font-size="36px" fill="#343a40" text-anchor="start" style="white-space: pre;" direction="ltr" dominant-baseline="text-before-edge">        b) app service</text><text x="0" y="1530" font-family="Virgil, Segoe UI Emoji" font-size="36px" fill="#343a40" text-anchor="start" style="white-space: pre;" direction="ltr" dominant-baseline="text-before-edge">            - CRUD app</text><text x="0" y="1575" font-family="Virgil, Segoe UI Emoji" font-size="36px" fill="#343a40" text-anchor="start" style="white-space: pre;" direction="ltr" dominant-baseline="text-before-edge">            - get app detials</text><text x="0" y="1620" font-family="Virgil, Segoe UI Emoji" font-size="36px" fill="#343a40" text-anchor="start" style="white-space: pre;" direction="ltr" dominant-baseline="text-before-edge">                1) current image</text><text x="0" y="1665" font-family="Virgil, Segoe UI Emoji" font-size="36px" fill="#343a40" text-anchor="start" style="white-space: pre;" direction="ltr" dominant-baseline="text-before-edge">                2) previous image</text><text x="0" y="1710" font-family="Virgil, Segoe UI Emoji" font-size="36px" fill="#343a40" text-anchor="start" style="white-space: pre;" direction="ltr" dominant-baseline="text-before-edge">                3) app url</text><text x="0" y="1755" font-family="Virgil, Segoe UI Emoji" font-size="36px" fill="#343a40" text-anchor="start" style="white-space: pre;" direction="ltr" dominant-baseline="text-before-edge">    7) Nats.io in cluster events (stretch)</text></g></svg>